<svg xmlns="http://www.w3.org/2000/svg" width="19.8" height="17.2" viewBox="0 0 19.8 17.2">
  <g id="グループ化_261" data-name="グループ化 261" transform="translate(-905.9 -3.9)">
    <g id="グループ化_260" data-name="グループ化 260">
      <g id="グループ化_257" data-name="グループ化 257">
        <path id="パス_26" data-name="パス 26" d="M924,7.3H907.6a1.685,1.685,0,0,1-1.7-1.7,1.752,1.752,0,0,1,1.7-1.7H924a1.7,1.7,0,1,1,0,3.4Z"/>
      </g>
      <g id="グループ化_258" data-name="グループ化 258">
        <path id="パス_27" data-name="パス 27" d="M924,14.2H907.6a1.685,1.685,0,0,1-1.7-1.7,1.752,1.752,0,0,1,1.7-1.7H924a1.7,1.7,0,1,1,0,3.4Z"/>
      </g>
      <g id="グループ化_259" data-name="グループ化 259">
        <path id="パス_28" data-name="パス 28" d="M924,21.1H907.6a1.7,1.7,0,1,1,0-3.4H924a1.7,1.7,0,1,1,0,3.4Z"/>
      </g>
    </g>
  </g>
</svg>
